<?xml version="1.0" encoding="UTF-8"?>
<svg width="600" height="400" viewBox="0 0 600 400" xmlns="http://www.w3.org/2000/svg">
    <!-- Background -->
    <rect width="600" height="400" fill="#f8fafc" rx="20" ry="20"/>
    
    <!-- Task List -->
    <rect x="50" y="50" width="500" height="300" fill="white" rx="10" ry="10" stroke="#e2e8f0" stroke-width="2"/>
    
    <!-- Task Items -->
    <g transform="translate(80, 80)">
        <!-- Task 1 -->
        <rect x="0" y="0" width="440" height="60" fill="#f1f5f9" rx="8" ry="8"/>
        <circle cx="30" cy="30" r="12" fill="#6366f1" opacity="0.2"/>
        <rect x="60" y="20" width="200" height="8" fill="#6366f1" rx="4" ry="4"/>
        <rect x="60" y="35" width="150" height="6" fill="#94a3b8" rx="3" ry="3"/>
        <rect x="280" y="25" width="60" height="20" fill="#6366f1" rx="10" ry="10"/>
        <text x="290" y="39" font-family="Arial" font-size="12" fill="white">High</text>
        
        <!-- Task 2 -->
        <rect x="0" y="80" width="440" height="60" fill="#f1f5f9" rx="8" ry="8"/>
        <circle cx="30" cy="110" r="12" fill="#6366f1" opacity="0.2"/>
        <rect x="60" y="100" width="180" height="8" fill="#6366f1" rx="4" ry="4"/>
        <rect x="60" y="115" width="120" height="6" fill="#94a3b8" rx="3" ry="3"/>
        <rect x="280" y="105" width="60" height="20" fill="#10b981" rx="10" ry="10"/>
        <text x="290" y="119" font-family="Arial" font-size="12" fill="white">Medium</text>
        
        <!-- Task 3 -->
        <rect x="0" y="160" width="440" height="60" fill="#f1f5f9" rx="8" ry="8"/>
        <circle cx="30" cy="190" r="12" fill="#6366f1" opacity="0.2"/>
        <rect x="60" y="180" width="160" height="8" fill="#6366f1" rx="4" ry="4"/>
        <rect x="60" y="195" width="100" height="6" fill="#94a3b8" rx="3" ry="3"/>
        <rect x="280" y="185" width="60" height="20" fill="#f59e0b" rx="10" ry="10"/>
        <text x="290" y="199" font-family="Arial" font-size="12" fill="white">Low</text>
    </g>
    
    <!-- Decorative Elements -->
    <circle cx="500" cy="100" r="40" fill="#6366f1" opacity="0.1"/>
    <circle cx="100" cy="300" r="30" fill="#6366f1" opacity="0.1"/>
    <circle cx="450" cy="350" r="25" fill="#6366f1" opacity="0.1"/>
</svg> 